<?xml version="1.0" standalone="no"?>
<!DOCTYPE svg PUBLIC "-//W3C//DTD SVG 20010904//EN"
 "http://www.w3.org/TR/2001/REC-SVG-20010904/DTD/svg10.dtd">
<svg version="1.0" xmlns="http://www.w3.org/2000/svg"
 width="1462.000000pt" height="374.000000pt" viewBox="0 0 1462.000000 374.000000"
 preserveAspectRatio="xMidYMid meet">
<metadata>
Created by potrace 1.16, written by Peter Selinger 2001-2019
</metadata>
<g transform="translate(0.000000,374.000000) scale(0.100000,-0.100000)"
fill="#000000" stroke="none">
<path d="M4755 2870 c-250 -26 -439 -114 -611 -285 -167 -165 -262 -348 -299
-580 -29 -177 -14 -412 35 -565 97 -300 349 -548 655 -643 129 -40 218 -52
385 -51 324 2 557 88 758 278 85 81 150 161 140 171 -2 3 -100 50 -217 105
l-213 100 -46 -41 c-186 -163 -494 -205 -719 -98 -73 35 -168 119 -212 188
-29 44 -58 118 -75 184 l-6 27 815 0 815 0 0 90 c0 346 -94 602 -299 814 -119
123 -239 199 -395 252 -140 48 -352 70 -511 54z m283 -452 c162 -30 344 -184
387 -325 l6 -23 -535 0 c-295 0 -536 3 -536 6 0 14 82 143 116 183 121 140
340 202 562 159z"/>
<path d="M7036 2869 c-130 -19 -255 -108 -325 -230 l-31 -54 0 118 0 117 -220
0 -220 0 0 -1015 0 -1015 254 0 255 0 4 623 c3 544 6 631 21 697 25 109 71
203 123 250 72 67 110 74 210 38 35 -12 64 -20 66 -17 6 6 157 433 157 441 0
11 -123 47 -180 52 -30 2 -82 0 -114 -5z"/>
<path d="M8319 2870 c-410 -45 -721 -354 -821 -815 -8 -39 -13 -129 -12 -255
1 -177 3 -204 27 -293 91 -339 337 -618 631 -716 300 -99 616 -42 854 155 l57
46 3 -101 3 -101 259 0 260 0 0 1015 0 1015 -260 0 -260 0 0 -101 0 -100 -27
21 c-16 11 -50 39 -78 61 -68 54 -214 125 -305 148 -93 23 -231 32 -331 21z
m380 -497 c170 -44 322 -207 366 -394 8 -36 15 -110 15 -169 0 -127 -19 -210
-67 -302 -66 -126 -157 -207 -288 -258 -51 -20 -78 -24 -185 -24 -107 0 -133
3 -182 22 -170 68 -295 213 -343 397 -35 131 -16 334 41 448 123 245 368 352
643 280z"/>
<path d="M10825 2870 c-207 -23 -388 -112 -540 -265 -148 -147 -237 -323 -276
-545 -17 -94 -17 -354 0 -440 43 -226 138 -407 293 -562 176 -177 389 -260
663 -259 217 0 383 56 542 182 l63 51 0 -39 c0 -73 -21 -204 -41 -258 -40
-107 -141 -188 -284 -226 -107 -29 -327 -31 -425 -5 -93 25 -162 60 -218 111
l-50 45 -281 0 c-218 0 -281 -3 -281 -12 0 -7 15 -47 34 -89 91 -210 256 -373
463 -458 161 -66 322 -93 548 -94 241 0 406 33 570 113 257 126 395 320 457
645 20 106 21 145 25 1083 l4 972 -260 0 -261 0 0 -106 0 -106 -41 37 c-105
94 -278 184 -408 210 -91 18 -213 25 -296 15z m363 -495 c99 -23 170 -63 243
-135 112 -111 162 -238 161 -415 -1 -200 -72 -350 -216 -459 -92 -70 -178 -96
-316 -96 -165 0 -265 38 -379 145 -116 110 -171 243 -171 415 0 159 49 288
147 392 84 88 167 135 278 158 65 13 186 11 253 -5z"/>
<path d="M13425 2869 c-243 -24 -469 -139 -651 -331 -204 -215 -296 -471 -281
-787 12 -264 102 -483 277 -674 254 -277 632 -391 1022 -307 517 111 876 613
820 1143 -16 145 -45 246 -107 372 -106 216 -260 368 -480 475 -134 66 -239
96 -383 110 -108 11 -105 11 -217 -1z m286 -505 c89 -27 150 -63 214 -128 111
-112 165 -252 165 -431 0 -173 -55 -310 -170 -426 -113 -114 -226 -155 -404
-147 -120 5 -188 27 -274 88 -151 105 -232 277 -232 489 0 156 34 262 122 379
124 166 365 239 579 176z"/>
</g>
</svg>
